<svg xmlns="http://www.w3.org/2000/svg" width="512" height="512" viewBox="0 0 384 384" version="1.2"><defs><clipPath id="prefix__a"><path d="M259 310h73v2.078h-73zm0 0"/></clipPath><clipPath id="prefix__b"><path d="M355 208h10.664v10H355zm0 0"/></clipPath><clipPath id="prefix__c"><path d="M102 72.078h39V111h-39zm0 0"/></clipPath></defs><path d="M148.926 157.691v88.36h-10.399V213.6H110.45c-4.027 0-5.715-1.695-5.715-5.605v-50.305h10.395v45.48h23.398v-45.48h10.399M172.063 225.46c0 7.169 6.5 10.817 13.257 10.817 6.368 0 12.996-3.648 12.996-10.816v-46.527c0-6.778-6.629-10.426-12.996-10.426-6.757 0-13.257 3.648-13.257 10.426zm-10.399-46.526c0-14.079 11.566-20.98 23.656-20.98 11.567 0 23.399 6.901 23.399 20.98v46.527c0 14.465-11.832 21.375-23.399 21.375-12.09 0-23.656-6.91-23.656-21.375v-46.527M266.297 157.691v88.36h-10.399V213.6h-28.074c-4.031 0-5.722-1.695-5.722-5.605v-50.305h10.402v45.48h23.394v-45.48h10.399" fill="#101313"/><g clip-path="url(#prefix__a)"><path d="M260.277 312.305h70.286a.928.928 0 00.921-.93.924.924 0 00-.921-.922h-70.286a.921.921 0 00-.922.922c0 .512.41.93.922.93" fill="#101313"/></g><path d="M112.09 308.645h70.285a.927.927 0 000-1.852H112.09a.927.927 0 000 1.852M269.094 97.027h52.652a.924.924 0 000-1.848h-52.652a.922.922 0 00-.922.926c0 .512.41.922.922.922M104.602 119.055h32.996a.925.925 0 00.925-.926.922.922 0 00-.925-.922h-32.996a.924.924 0 000 1.848M293.25 170.89h32.996a.921.921 0 00.922-.921.922.922 0 00-.922-.926H293.25a.924.924 0 000 1.848M327.648 190.633h33a.921.921 0 00.922-.922.92.92 0 00-.922-.926h-33a.924.924 0 000 1.848M19.137 236.336h33a.925.925 0 00.922-.93.921.921 0 00-.922-.922h-33a.924.924 0 00-.922.922c0 .512.414.93.922.93M34.488 171.742h32.996a.927.927 0 000-1.851H34.488a.922.922 0 00-.922.925c0 .508.41.926.922.926M186.223 99.621h-.922a2.932 2.932 0 01-2.926 2.938 2.94 2.94 0 01-2.934-2.938 2.94 2.94 0 012.934-2.937 2.934 2.934 0 012.926 2.937h1.847a4.775 4.775 0 10-9.55 0 4.781 4.781 0 004.777 4.785 4.778 4.778 0 004.773-4.785h-.925M31.785 142.422h-.922a2.94 2.94 0 01-2.93 2.941A2.944 2.944 0 0125 142.422a2.943 2.943 0 012.934-2.938 2.94 2.94 0 012.93 2.938h1.847c-.004-2.64-2.14-4.785-4.777-4.785a4.778 4.778 0 00-4.774 4.785 4.779 4.779 0 004.774 4.789c2.636 0 4.773-2.145 4.777-4.79h-.926M294.098 127.684h-.922a2.94 2.94 0 01-2.93 2.941 2.936 2.936 0 01-2.93-2.941 2.937 2.937 0 012.93-2.938 2.942 2.942 0 012.93 2.938h1.844a4.78 4.78 0 00-4.774-4.786 4.778 4.778 0 00-4.773 4.786 4.782 4.782 0 004.773 4.793 4.785 4.785 0 004.774-4.793h-.922" fill="#101313"/><g clip-path="url(#prefix__b)"><path d="M364.5 213.137h-.926a2.937 2.937 0 01-2.926 2.937 2.94 2.94 0 01-2.074-5.015 2.92 2.92 0 012.074-.86 2.934 2.934 0 012.926 2.938h1.848a4.779 4.779 0 00-4.774-4.79 4.78 4.78 0 00-4.777 4.79 4.779 4.779 0 004.777 4.785 4.78 4.78 0 004.774-4.785h-.922" fill="#101313"/></g><path d="M322.328 256.996h-.922a2.934 2.934 0 01-2.926 2.938 2.94 2.94 0 01-2.074-5.016 2.926 2.926 0 012.074-.86 2.932 2.932 0 012.926 2.938h1.848c-.004-2.64-2.133-4.789-4.774-4.789a4.782 4.782 0 00-4.777 4.79 4.775 4.775 0 109.55 0h-.925M348.77 127.426l.128 6.976a.93.93 0 00.942.91.93.93 0 00.906-.945l-.133-6.972a.92.92 0 00-.937-.91.925.925 0 00-.906.94M349.016 140.828l.129 6.973c.007.512.43.918.94.91a.925.925 0 00.903-.945l-.129-6.973a.922.922 0 10-1.844.035M360.023 136.48l-6.957.137a.919.919 0 00-.906.938c.012.511.43.918.938.91l6.96-.133a.925.925 0 00.907-.941.933.933 0 00-.942-.91M346.66 136.73l-6.96.13a.925.925 0 00-.903.945.919.919 0 00.937.906l6.957-.129a.927.927 0 00-.03-1.852M356.266 129.617l-4.829 5.024a.926.926 0 001.332 1.285l4.825-5.024a.926.926 0 00-.024-1.308.92.92 0 00-1.304.023M346.992 139.27l-4.832 5.023a.924.924 0 001.332 1.285l4.828-5.023a.925.925 0 00-.023-1.309.92.92 0 00-1.305.024M357.836 144l-5.008-4.84a.913.913 0 00-1.3.028.917.917 0 00.019 1.304l5.012 4.84a.92.92 0 001.304-.023.926.926 0 00-.027-1.309M348.215 134.703l-5.012-4.844a.926.926 0 00-1.308.024.934.934 0 00.027 1.312l5.012 4.84a.913.913 0 001.3-.027.92.92 0 00-.02-1.305M62.258 109.809l.129 6.98a.922.922 0 101.844-.035l-.126-6.977a.93.93 0 00-.937-.91.93.93 0 00-.91.942M62.508 123.21l.129 6.978c.008.511.43.917.941.91a.925.925 0 00.902-.946l-.128-6.976a.928.928 0 00-.942-.91.925.925 0 00-.902.945M73.512 118.867l-6.953.13a.933.933 0 00-.91.94.928.928 0 00.94.91l6.962-.128a.924.924 0 00.902-.942.923.923 0 00-.941-.91M60.148 119.117l-6.957.13a.925.925 0 00.035 1.852l6.958-.13a.93.93 0 00.906-.942.93.93 0 00-.942-.91M69.758 112l-4.832 5.027a.93.93 0 00.027 1.309.916.916 0 001.3-.023l4.833-5.028A.924.924 0 0069.758 112M60.484 121.652l-4.832 5.028a.93.93 0 00.028 1.308.916.916 0 001.3-.023l4.833-5.031a.924.924 0 00-.024-1.305.92.92 0 00-1.305.023M71.328 126.387l-5.008-4.84a.926.926 0 00-1.308.023.93.93 0 00.027 1.309l5.012 4.844a.92.92 0 001.3-.028.926.926 0 00-.023-1.308M61.703 117.086l-5.012-4.844a.92.92 0 00-1.3.028.92.92 0 00.02 1.304l5.01 4.844a.92.92 0 001.306-.023.93.93 0 00-.024-1.31M341.969 276.852l.125 6.976a.933.933 0 00.941.91.928.928 0 00.906-.945l-.128-6.977a.922.922 0 10-1.844.036M342.21 290.25l.134 6.977c.008.511.43.914.937.91a.925.925 0 00.906-.946l-.128-6.976a.926.926 0 00-.938-.906.93.93 0 00-.91.941M353.223 285.91l-6.961.13a.921.921 0 00-.903.94.916.916 0 00.938.907l6.96-.13a.921.921 0 00.903-.94.916.916 0 00-.937-.907M339.86 286.16l-6.962.125a.925.925 0 00-.902.945.921.921 0 00.938.907l6.957-.13a.921.921 0 00.902-.94.915.915 0 00-.934-.907M349.465 279.043l-4.828 5.023a.926.926 0 00.023 1.309.92.92 0 001.305-.023l4.828-5.028a.92.92 0 00-.023-1.304.92.92 0 00-1.305.023M340.191 288.691l-4.832 5.028a.93.93 0 00.028 1.308.92.92 0 001.304-.023l4.825-5.027a.917.917 0 00-.02-1.305.917.917 0 00-1.305.02M351.035 293.426l-5.012-4.84a.916.916 0 00-1.3.023.926.926 0 00.023 1.309l5.012 4.84a.92.92 0 001.305-.024.93.93 0 00-.028-1.308M341.41 284.125l-5.012-4.84a.92.92 0 00-1.304.027.924.924 0 00.027 1.305l5.008 4.844a.916.916 0 001.3-.024.927.927 0 00-.019-1.312M52.2 203.738h-.923a4.779 4.779 0 004.774 4.79c2.64 0 4.773-2.141 4.773-4.79a4.778 4.778 0 00-4.773-4.785 4.78 4.78 0 00-4.774 4.785h1.844a2.942 2.942 0 012.93-2.937 2.946 2.946 0 012.933 2.937 2.944 2.944 0 01-2.933 2.942 2.94 2.94 0 01-2.93-2.942H52.2M77.809 253.133h-.926a4.782 4.782 0 004.777 4.789c2.637 0 4.774-2.145 4.774-4.79 0-2.644-2.137-4.788-4.774-4.788a4.782 4.782 0 00-4.777 4.789h1.847a2.94 2.94 0 012.93-2.938 2.937 2.937 0 010 5.875 2.935 2.935 0 01-2.93-2.937h-.921M52.473 276.816l-.13 6.977a.925.925 0 00.903.945.928.928 0 00.941-.91l.13-6.976a.922.922 0 10-1.844-.035M52.227 290.219l-.13 6.972a.928.928 0 00.907.946.927.927 0 00.937-.91l.13-6.977a.93.93 0 00-.907-.941.922.922 0 00-.937.91M43.027 287.758l6.957.129a.92.92 0 00.942-.907.921.921 0 00-.903-.94l-6.96-.13a.919.919 0 00-.938.906.921.921 0 00.902.942M56.395 288.008l6.957.129a.93.93 0 00.941-.907.928.928 0 00-.906-.945l-6.961-.125a.925.925 0 00-.031 1.848M45.488 280.324l4.832 5.028a.92.92 0 001.305.023.926.926 0 00.023-1.309l-4.832-5.023a.916.916 0 00-1.3-.023.925.925 0 00-.028 1.304M54.762 289.977l4.832 5.027a.92.92 0 001.304.023.926.926 0 00.024-1.308l-4.828-5.028a.917.917 0 00-1.305-.02.924.924 0 00-.027 1.306M46.531 294.758l5.008-4.84a.93.93 0 00.023-1.309.92.92 0 00-1.3-.023l-5.012 4.84a.93.93 0 00-.027 1.308.926.926 0 001.308.024M56.156 285.46l5.008-4.843a.924.924 0 00.027-1.305.92.92 0 00-1.304-.027l-5.012 4.84a.93.93 0 00-.023 1.313.92.92 0 001.304.023" fill="#101313"/><path d="M92.102 296.625a9.412 9.412 0 01-6.684-2.777 9.454 9.454 0 01-2.773-6.7 9.447 9.447 0 012.773-6.699 9.415 9.415 0 016.684-2.781v-.5.5a9.408 9.408 0 016.683 2.781 9.447 9.447 0 012.774 6.7 9.454 9.454 0 01-2.774 6.699 9.405 9.405 0 01-6.683 2.777m0-17.555c-4.45 0-8.055 3.618-8.055 8.078 0 4.461 3.605 8.079 8.055 8.079v-.504.504c4.453 0 8.058-3.618 8.058-8.079 0-4.46-3.605-8.078-8.058-8.078" fill="#efac1e"/><path d="M92.102 297.629c-5.766 0-10.454-4.7-10.457-10.48.003-5.786 4.69-10.485 10.457-10.485v1.004a9.415 9.415 0 00-6.684 2.781 9.447 9.447 0 00-2.773 6.7 9.454 9.454 0 002.773 6.699 9.412 9.412 0 006.684 2.777 9.405 9.405 0 006.683-2.777 9.454 9.454 0 002.774-6.7 9.447 9.447 0 00-2.774-6.699 9.408 9.408 0 00-6.683-2.781v-1.004c5.765 0 10.457 4.7 10.457 10.484 0 5.782-4.692 10.48-10.457 10.48m0-2.401c-4.45 0-8.055-3.618-8.055-8.079 0-4.46 3.605-8.078 8.055-8.078 4.453 0 8.058 3.618 8.058 8.078 0 4.461-3.605 8.079-8.058 8.079v-1.004c1.949 0 3.714-.79 4.992-2.07a7.059 7.059 0 002.066-5.005c0-1.957-.789-3.722-2.066-5.003a7.025 7.025 0 00-4.992-2.07c-1.95 0-3.711.788-4.993 2.07a7.075 7.075 0 00-2.066 5.003c0 1.957.793 3.723 2.066 5.004a7.032 7.032 0 004.993 2.07v1.005" fill="#11100d"/><path d="M93.613 305.266H90.59c-.86 0-1.559-.704-1.559-1.563v-1.894a.494.494 0 00-.379-.485 14.671 14.671 0 01-4.109-1.707.47.47 0 00-.258-.074.52.52 0 00-.355.148l-1.332 1.34c-.305.305-.7.457-1.102.457-.402 0-.797-.152-1.101-.457l-2.137-2.144a1.562 1.562 0 010-2.211l1.332-1.336a.508.508 0 00.074-.617 14.516 14.516 0 01-1.7-4.114.497.497 0 00-.484-.386h-1.89c-.86 0-1.555-.7-1.559-1.563v-3.027c.004-.863.7-1.563 1.559-1.563h1.89c.23 0 .434-.16.485-.382.36-1.473.933-2.86 1.695-4.118.125-.199.09-.449-.07-.617l-1.332-1.336a1.553 1.553 0 01-.457-1.101c0-.407.152-.805.457-1.11l2.137-2.14c.304-.309.699-.461 1.101-.461s.797.152 1.102.46l1.332 1.34a.516.516 0 00.355.145.47.47 0 00.258-.074 14.548 14.548 0 014.11-1.703.502.502 0 00.378-.489v-1.89c0-.864.7-1.563 1.559-1.563h3.023c.86 0 1.559.7 1.563 1.563v1.89c0 .23.152.434.379.489 1.465.359 2.847.937 4.105 1.703a.47.47 0 00.258.074.51.51 0 00.355-.145l1.336-1.34a1.547 1.547 0 012.203 0l2.137 2.141c.305.305.453.703.453 1.11 0 .398-.148.796-.453 1.101l-1.336 1.336a.503.503 0 00-.074.617 14.427 14.427 0 011.7 4.118.501.501 0 00.488.382h1.886v-.504.504c.86 0 1.559.7 1.559 1.563v3.027c0 .863-.7 1.563-1.559 1.563h-1.886c-.235 0-.43.16-.489.382a14.381 14.381 0 01-1.699 4.118c-.121.199-.09.453.074.617l1.336 1.336c.305.308.453.707.453 1.105 0 .403-.148.797-.453 1.106l-2.136 2.144a1.56 1.56 0 01-2.204 0l-1.336-1.34a.513.513 0 00-.355-.148.47.47 0 00-.258.074 14.695 14.695 0 01-4.105 1.707.49.49 0 00-.38.485v1.894a1.57 1.57 0 01-1.562 1.563m-1.511-29.618c-6.325.004-11.465 5.157-11.47 11.5.005 6.34 5.145 11.497 11.47 11.5v-.503.503c6.324-.003 11.468-5.16 11.468-11.5 0-6.343-5.144-11.496-11.468-11.5" fill="#efac1e"/><path d="M93.613 306.27H90.59a2.562 2.562 0 01-2.559-2.567V302.2a15.47 15.47 0 01-3.668-1.523l-1.058 1.062a2.55 2.55 0 01-3.618 0l-2.14-2.14a2.583 2.583 0 010-3.633l1.058-1.059a15.728 15.728 0 01-1.515-3.68h-1.5a2.564 2.564 0 01-2.559-2.566v-3.027a2.564 2.564 0 012.559-2.567h1.5c.351-1.3.863-2.535 1.515-3.675l-1.054-1.067a2.546 2.546 0 01-.75-1.808c0-.66.25-1.32.746-1.817l2.14-2.14a2.528 2.528 0 011.81-.754c.651 0 1.312.25 1.808.75l1.058 1.062a15.633 15.633 0 013.668-1.523v-1.5a2.562 2.562 0 012.559-2.567h3.023a2.562 2.562 0 012.559 2.567v1.504a15.46 15.46 0 013.668 1.52l1.058-1.063c.497-.5 1.157-.75 1.809-.75h.004c.652 0 1.309.25 1.809.75l2.136 2.144c.496.496.746 1.156.746 1.817 0 .652-.25 1.312-.746 1.808l-1.062 1.067a15.29 15.29 0 011.52 3.675h1.5v1.004h-1.887a.501.501 0 01-.489-.382 14.427 14.427 0 00-1.699-4.118.503.503 0 01.074-.617l1.336-1.336c.305-.305.453-.703.453-1.101 0-.407-.148-.805-.453-1.11l-2.136-2.14a1.547 1.547 0 00-2.204 0l-1.336 1.34a.51.51 0 01-.355.144.47.47 0 01-.258-.074 14.571 14.571 0 00-4.105-1.703.498.498 0 01-.38-.489v-1.89a1.567 1.567 0 00-1.562-1.563H90.59c-.86 0-1.559.7-1.559 1.563v1.89c0 .23-.156.434-.379.489-1.468.359-2.851.937-4.109 1.703a.47.47 0 01-.258.074.516.516 0 01-.355-.145l-1.332-1.34c-.305-.308-.7-.46-1.102-.46-.402 0-.797.152-1.101.46l-2.137 2.141a1.557 1.557 0 00-.457 1.11c0 .398.152.796.457 1.101l1.332 1.336c.16.168.195.418.07.617a14.645 14.645 0 00-1.695 4.118.498.498 0 01-.485.382h-1.89c-.86 0-1.555.7-1.559 1.563v3.027c.004.863.7 1.563 1.559 1.563h1.89c.23 0 .434.16.485.386.36 1.473.933 2.856 1.7 4.114.12.199.085.453-.075.617l-1.332 1.336a1.569 1.569 0 000 2.21l2.137 2.145c.304.305.699.457 1.101.457s.797-.152 1.102-.457l1.332-1.34a.52.52 0 01.355-.148c.09 0 .18.023.258.074a14.671 14.671 0 004.11 1.707c.222.051.378.254.378.485v1.894c0 .86.7 1.563 1.559 1.563h3.023a1.57 1.57 0 001.563-1.563v-1.894a.49.49 0 01.379-.485 14.695 14.695 0 004.105-1.707.47.47 0 01.258-.074c.133 0 .258.055.355.148l1.336 1.34a1.56 1.56 0 002.203 0l2.137-2.144c.305-.309.453-.703.453-1.106 0-.398-.148-.797-.453-1.105l-1.336-1.336a.502.502 0 01-.074-.617 14.381 14.381 0 001.7-4.118.506.506 0 01.488-.382h1.886c.86 0 1.559-.7 1.559-1.563v-3.027c0-.863-.7-1.563-1.559-1.563v-1.004a2.564 2.564 0 012.559 2.567v3.027a2.564 2.564 0 01-2.559 2.567h-1.5a15.252 15.252 0 01-1.52 3.68l1.063 1.058a2.583 2.583 0 010 3.633l-2.136 2.14c-.5.5-1.157.754-1.805.754h-.004-.004a2.557 2.557 0 01-1.809-.754l-1.058-1.062a15.299 15.299 0 01-3.668 1.52v1.507a2.562 2.562 0 01-2.559 2.567m-1.511-7.622c-6.325-.003-11.465-5.16-11.47-11.5.005-6.343 5.145-11.496 11.47-11.5 6.324.004 11.468 5.157 11.468 11.5 0 6.34-5.144 11.497-11.468 11.5v-1.003c2.886 0 5.5-1.176 7.398-3.079a10.483 10.483 0 003.07-7.418c0-2.894-1.175-5.515-3.07-7.418a10.418 10.418 0 00-7.398-3.078c-2.887 0-5.5 1.176-7.395 3.078a10.47 10.47 0 00-3.074 7.418 10.47 10.47 0 003.074 7.418 10.402 10.402 0 007.395 3.079v1.003" fill="#11100d"/><path d="M92.102 290.543a3.365 3.365 0 01-2.391-.996 3.396 3.396 0 012.39-5.797v-.5.5c.934 0 1.782.379 2.395.996a3.39 3.39 0 01.992 2.402c0 .938-.379 1.782-.992 2.399a3.381 3.381 0 01-2.394.996" fill="#efac1e"/><path d="M92.102 291.543a4.389 4.389 0 01-4.383-4.395 4.39 4.39 0 014.383-4.398v1a3.396 3.396 0 00-2.391 5.797c.61.613 1.457.996 2.39.996.934 0 1.782-.383 2.395-.996.613-.617.992-1.461.992-2.399a3.39 3.39 0 00-.992-2.402 3.365 3.365 0 00-2.394-.996v-1a4.393 4.393 0 014.386 4.398 4.39 4.39 0 01-4.386 4.395" fill="#11100d"/><path d="M121.102 100.7a9.415 9.415 0 01-6.68-2.782 9.458 9.458 0 01-2.777-6.7 9.45 9.45 0 012.777-6.698 9.399 9.399 0 016.68-2.782v-.5.5a9.415 9.415 0 016.683 2.782 9.464 9.464 0 012.774 6.699 9.47 9.47 0 01-2.774 6.699 9.431 9.431 0 01-6.683 2.781m0-17.558c-4.45 0-8.055 3.613-8.055 8.078 0 4.46 3.605 8.078 8.055 8.078v-.504.504c4.449 0 8.058-3.617 8.058-8.078 0-4.465-3.61-8.078-8.058-8.078" fill="#efac1e"/><path d="M121.102 101.7c-5.766 0-10.454-4.7-10.454-10.481 0-5.785 4.688-10.485 10.454-10.485v1.004a9.399 9.399 0 00-6.68 2.782 9.45 9.45 0 00-2.777 6.699 9.458 9.458 0 002.777 6.699 9.415 9.415 0 0013.363 0 9.47 9.47 0 002.774-6.7 9.464 9.464 0 00-2.774-6.698 9.415 9.415 0 00-6.683-2.782v-1.004c5.77 0 10.457 4.7 10.457 10.485 0 5.781-4.688 10.48-10.457 10.48m0-2.402c-4.45 0-8.055-3.617-8.055-8.078 0-4.465 3.605-8.078 8.055-8.078 4.449 0 8.058 3.613 8.058 8.078 0 4.46-3.61 8.078-8.058 8.078v-1.004c1.953 0 3.71-.793 4.992-2.074a7.056 7.056 0 002.066-5c0-1.957-.789-3.723-2.066-5.004a7.028 7.028 0 00-4.992-2.074 7.02 7.02 0 00-4.989 2.074 7.059 7.059 0 00-2.066 5.004c0 1.953.789 3.719 2.066 5a7.02 7.02 0 004.989 2.074v1.004" fill="#11100d"/><path d="M122.613 109.332h-3.02c-.859 0-1.562-.7-1.562-1.562v-1.891a.501.501 0 00-.383-.488 14.186 14.186 0 01-4.101-1.704.54.54 0 00-.266-.07.494.494 0 00-.351.149l-1.332 1.336a1.553 1.553 0 01-2.203 0l-2.137-2.145a1.54 1.54 0 01-.457-1.105c0-.403.148-.797.457-1.106l1.332-1.336a.508.508 0 00.074-.617 14.47 14.47 0 01-1.7-4.113.501.501 0 00-.484-.383h-1.886a1.559 1.559 0 01-1.559-1.563v-3.03c0-.864.692-1.563 1.559-1.563h1.886c.23 0 .43-.157.485-.387a14.404 14.404 0 011.7-4.113c.116-.2.089-.45-.075-.618l-1.332-1.335a1.54 1.54 0 01-.457-1.106c0-.398.148-.797.457-1.102l2.137-2.144c.304-.309.699-.461 1.101-.461.399 0 .797.152 1.102.46l1.332 1.337a.494.494 0 00.617.074 14.295 14.295 0 014.101-1.703.501.501 0 00.383-.488v-1.89c0-.864.703-1.563 1.563-1.563h3.02c.863 0 1.554.699 1.554 1.562v1.89c0 .231.16.434.387.489 1.468.355 2.847.937 4.105 1.703a.49.49 0 00.613-.074l1.332-1.336a1.547 1.547 0 012.208 0l2.136 2.144c.305.305.457.704.457 1.102 0 .402-.152.8-.457 1.106l-1.336 1.335a.503.503 0 00-.074.618 14.516 14.516 0 011.7 4.113.5.5 0 00.488.387h1.886v-.5.5c.864 0 1.559.699 1.559 1.562v3.031c0 .864-.695 1.559-1.559 1.563h-1.886c-.23 0-.434.16-.489.383a14.47 14.47 0 01-1.699 4.113c-.121.2-.09.453.074.617l1.336 1.336a1.562 1.562 0 010 2.211l-2.137 2.145a1.56 1.56 0 01-2.207 0l-1.332-1.336a.503.503 0 00-.613-.079 14.524 14.524 0 01-4.105 1.704.505.505 0 00-.387.488v1.89c0 .864-.691 1.563-1.555 1.563m-1.511-29.613c-6.325 0-11.465 5.156-11.465 11.5 0 6.34 5.14 11.496 11.465 11.5v-.504.504c6.324-.004 11.468-5.16 11.468-11.5 0-6.344-5.144-11.5-11.468-11.5" fill="#efac1e"/><g clip-path="url(#prefix__c)"><path d="M122.613 110.336h-3.02a2.562 2.562 0 01-2.562-2.566v-1.5a15.536 15.536 0 01-3.664-1.524l-1.062 1.063c-.496.5-1.153.754-1.809.754h-.004a2.554 2.554 0 01-1.805-.75l-2.136-2.145c-.5-.5-.754-1.16-.754-1.816 0-.653.254-1.313.754-1.813l1.058-1.066a15.487 15.487 0 01-1.52-3.672h-1.495a2.565 2.565 0 01-2.563-2.567v-3.03a2.562 2.562 0 012.563-2.567h1.496c.351-1.301.863-2.535 1.52-3.676l-1.06-1.066a2.553 2.553 0 010-3.625l2.138-2.141a2.53 2.53 0 011.804-.758h.004c.656 0 1.313.254 1.809.758l1.062 1.058a15.364 15.364 0 013.664-1.519v-1.504a2.565 2.565 0 012.563-2.566h3.02a2.562 2.562 0 012.558 2.566v1.504c1.297.352 2.531.863 3.668 1.52l1.058-1.06a2.545 2.545 0 011.809-.757h.004c.652 0 1.312.254 1.809.758l2.132 2.14a2.553 2.553 0 010 3.626l-1.058 1.066a15.279 15.279 0 011.515 3.676h1.504v1.004h-1.886a.5.5 0 01-.489-.387 14.516 14.516 0 00-1.699-4.113.503.503 0 01.074-.618l1.336-1.335c.305-.305.457-.704.457-1.106 0-.398-.152-.797-.457-1.102l-2.137-2.144a1.547 1.547 0 00-2.207 0l-1.332 1.336a.49.49 0 01-.613.074 14.411 14.411 0 00-4.105-1.703.505.505 0 01-.387-.488v-1.89c0-.864-.691-1.563-1.555-1.563h-3.02c-.859 0-1.562.699-1.562 1.562v1.89c0 .231-.156.434-.383.489a14.295 14.295 0 00-4.101 1.703.494.494 0 01-.617-.074l-1.332-1.336a1.54 1.54 0 00-1.102-.461c-.402 0-.797.152-1.101.46l-2.137 2.145a1.537 1.537 0 00-.457 1.102c0 .402.148.8.457 1.106l1.332 1.335a.508.508 0 01.074.618 14.404 14.404 0 00-1.7 4.113.496.496 0 01-.484.387h-1.886c-.867 0-1.559.699-1.559 1.562v3.031c0 .864.692 1.559 1.559 1.563h1.886c.23 0 .43.16.485.383a14.47 14.47 0 001.7 4.113c.116.2.089.453-.075.617l-1.332 1.336a1.546 1.546 0 00-.457 1.106c0 .402.148.8.457 1.105l2.137 2.145a1.553 1.553 0 002.203 0l1.332-1.336a.494.494 0 01.351-.149.54.54 0 01.266.07c1.25.77 2.633 1.348 4.101 1.704a.501.501 0 01.383.488v1.89c0 .864.703 1.563 1.563 1.563h3.02c.863 0 1.554-.7 1.554-1.562v-1.891c0-.23.16-.434.387-.488a14.524 14.524 0 004.105-1.704.503.503 0 01.613.078l1.332 1.337a1.56 1.56 0 002.208 0l2.136-2.145a1.562 1.562 0 000-2.21l-1.336-1.337a.502.502 0 01-.074-.617 14.47 14.47 0 001.7-4.113.506.506 0 01.488-.383h1.886a1.561 1.561 0 001.559-1.563v-3.03c0-.864-.695-1.563-1.559-1.563v-1.004a2.562 2.562 0 012.559 2.566v3.031a2.564 2.564 0 01-2.559 2.567h-1.504a15.316 15.316 0 01-1.515 3.672l1.058 1.066c.5.5.754 1.16.754 1.813 0 .656-.254 1.316-.754 1.816l-2.132 2.144a2.563 2.563 0 01-1.81.75h-.003a2.57 2.57 0 01-1.809-.75l-1.058-1.066a15.565 15.565 0 01-3.668 1.524v1.5a2.559 2.559 0 01-2.559 2.566m-1.511-7.617c-6.325-.004-11.465-5.16-11.465-11.5 0-6.344 5.14-11.5 11.465-11.5 6.324 0 11.468 5.156 11.468 11.5 0 6.34-5.144 11.496-11.468 11.5v-1.004c2.886 0 5.5-1.176 7.398-3.078a10.467 10.467 0 003.07-7.418c0-2.895-1.172-5.516-3.07-7.418a10.418 10.418 0 00-7.398-3.078c-2.887 0-5.5 1.175-7.399 3.078a10.483 10.483 0 00-3.07 7.418c0 2.894 1.176 5.515 3.07 7.418a10.418 10.418 0 007.399 3.078v1.004" fill="#11100d"/></g><path d="M121.102 94.613a3.397 3.397 0 010-6.793v-.496.496a3.397 3.397 0 010 6.793" fill="#efac1e"/><path d="M121.102 95.613a4.386 4.386 0 01-4.383-4.394 4.39 4.39 0 014.383-4.399v1a3.398 3.398 0 000 6.793 3.381 3.381 0 002.394-.996c.617-.613.992-1.46.992-2.398a3.397 3.397 0 00-3.387-3.398v-1a4.393 4.393 0 014.387 4.398 4.39 4.39 0 01-4.386 4.394" fill="#11100d"/><path d="M251.855 117.816h19.083v-2.754h-19.083zm0 0" fill="#efac1e"/><path d="M271.438 118.82h-20.083a.52.52 0 01-.355-.144.522.522 0 01-.145-.36v-3.746c0 .078.024.157.063.23a.495.495 0 00.676.2l1.726-.941h16.153l1.726.941a.501.501 0 00.738-.438v3.754c0 .141-.054.262-.148.36a.487.487 0 01-.351.144m0-.504v-.5.5m-19.583-3.254v2.754h19.083v-2.754h-19.083" fill="#11100d"/><path d="M251.355 115.063a.495.495 0 01-.437-.262.498.498 0 01.2-.68l7.777-4.25c.105.324.265.625.48.883l-6.055 3.305-1.726.941a.516.516 0 01-.239.063m20.083 0a.529.529 0 01-.239-.063l-1.726-.941-6.051-3.305c.21-.258.375-.555.476-.883l7.778 4.25c.168.09.262.262.262.442a.501.501 0 01-.5.5M203.191 115.941h-1V95.145c.02.039.051.078.086.117a.51.51 0 00.352.144h.562v20.535m45.829-28.718h-3.075l-31.96-11.02-.598-1.129a.503.503 0 00-.274-.234l35.907 12.383m-45.262 0h-1.301l10.102-12.227c-.07.09-.114.2-.114.317v1.39l-8.687 10.52m8.824-12.25v-.004.004m.004-.004a.487.487 0 01.363-.156c.028 0 .055.003.086.007a.646.646 0 00-.21.004.51.51 0 00-.24.145m.454-.149h-.004.004" fill="#11100d"/><path d="M216.902 83.816h-3.453V77.32l3.453 6.496" fill="#efac1e"/><path d="M218.035 83.816h-1.133l-3.453-6.496v6.496h-1.004v-8.504c0-.117.043-.226.114-.316l.023-.023v-.004h.004a.51.51 0 01.238-.145.646.646 0 01.125-.011c.028 0 .055.003.086.007h.004a.503.503 0 01.348.254l.597 1.13 4.051 7.612m-5.086-8.504l-.445.235.445-.234" fill="#11100d"/><path d="M260.898 94.402h-39.496v-1.136H260.898v1.136m-52.828 0h-4.941v-1.136h4.941v1.136" fill="#efac1e"/><path d="M260.898 95.406h-39.496v-1.004h39.496v-1.136 2.14m-52.828 0h-5.441a.51.51 0 01-.352-.144.532.532 0 01-.148-.36v-1.949l.25.2c.09.074.2.113.312.113h.438v1.136h4.941v1.004" fill="#11100d"/><path d="M220.984 148.027h-11.047v-2.234h11.047v2.234" fill="#efac1e"/><path d="M221.484 149.027h-12.047a.504.504 0 01-.5-.496v-3.238c0-.133.055-.262.149-.356a.493.493 0 01.351-.144h.766v.5c0 .129.055.262.149.355a.493.493 0 00.351.145h-.766v2.234h11.047v-2.234h-.77c.134 0 .263-.05.356-.145a.502.502 0 00.145-.355v-.5h.77a.5.5 0 01.5.5v3.238a.497.497 0 01-.5.496m0-.496v-.504.504" fill="#11100d"/><path d="M219.715 144.793h-8.508v-1.555h8.508v1.555" fill="#efac1e"/><path d="M220.215 145.793h-9.512a.493.493 0 01-.351-.145.513.513 0 01-.149-.355v-2.555a.506.506 0 01.5-.504h1.742v.493c0 .152.063.3.188.402.09.07.199.11.308.11h-1.734v1.554h8.508v-1.555h-1.742a.506.506 0 00.355-.148.493.493 0 00.145-.352v-.504h1.742a.502.502 0 01.5.504v2.555c0 .133-.05.262-.145.355a.502.502 0 01-.355.145m0-.5v-.5.5" fill="#11100d"/><path d="M217.477 142.234h-3.485l3.485-4.324v4.324m0-6.246h-3.485l3.485-4.324v4.324m0-6.246h-3.485l3.485-4.328v4.328m0-6.246h-3.485l3.485-4.324v4.324m0-6.246h-3.485l3.485-4.328v4.328m0-6.25h-3.485l3.485-4.324V111m0-6.246h-3.485l3.485-4.324v4.324" fill="#efac1e"/><path d="M217.973 143.238h-5.02a.492.492 0 00.383-.187l.656-.817h3.485v-4.324l.89-1.101a.523.523 0 00.106-.305v6.234c0 .133-.051.258-.145.352a.506.506 0 01-.355.148m0-.5v-.504.504m-5.528-.011V136.5c0 .035.004.07.012.105l.004.004v.008l.004.004a.531.531 0 00.168.262c.09.07.203.11.316.11v4.948l-.39.48a.483.483 0 00-.114.306m0-6.247v-6.23c0 .04.004.07.012.105 0 .004.004.004.004.008v.012c.004 0 .004 0 .004.004v.004l.004.004c.023.09.078.175.156.242h.004a.479.479 0 00.32.113v4.95l-.39.484a.483.483 0 00-.114.304m6.028-.003a.496.496 0 00-.5-.488h-.496v-4.325l.89-1.105a.505.505 0 00.106-.305v6.223m-6.028-6.243v-6.226c0 .027.004.058.008.082l.012.043v.004c.004 0 .004.004.004.004v.007l.004.004a.495.495 0 00.477.344v4.945l-.391.485c-.016.015-.024.039-.04.054v.004h-.003v.008h-.004V130h-.004v.008a.448.448 0 00-.063.226m6.028-.004a.496.496 0 00-.5-.488h-.496v-4.328l.89-1.105a.494.494 0 00.106-.301v6.222m-6.028-6.242v-6.226a.52.52 0 00.184.379.517.517 0 00.32.113v4.945l-.39.485a.475.475 0 00-.114.304m6.028-.004a.496.496 0 00-.5-.488h-.496v-4.324l.89-1.106a.505.505 0 00.106-.304v6.222m0-6.246a.496.496 0 00-.5-.488h-.496v-4.328l.89-1.102a.514.514 0 00.106-.304v6.222m-6.028 0v-6.222a.45.45 0 00.012.101l.004.004v.008c0 .004 0 .004.004.004v.004a.495.495 0 00.484.367v4.945l-.39.485a.523.523 0 00-.114.304m0-6.246v-6.222c.004.14.07.28.184.375a.495.495 0 00.32.113v4.949l-.39.48a.492.492 0 00-.114.305m6.028 0a.444.444 0 00-.047-.207.503.503 0 00-.453-.285h-.496v-4.324l.89-1.102a.517.517 0 00.106-.308v6.226m0-6.246a.4.4 0 00-.047-.203.5.5 0 00-.453-.29h-.496v-4.323l.738-.918h.258v5.734m-6.028 0v-5.734h.504v4.945l-.39.484a.523.523 0 00-.114.305" fill="#11100d"/><path d="M212.95 141.941v-4.949h3.98l-3.98 4.95" fill="#efac1e"/><path d="M212.95 143.238h-.009a.504.504 0 01-.308-.11.513.513 0 01-.188-.401c0-.106.04-.215.114-.305l.39-.48 3.98-4.95h-3.976a.514.514 0 00.383-.183l.656-.82h3.98a.496.496 0 01.5.488v.027c0 .11-.038.21-.105.305l-.89 1.101-3.485 4.324-.656.817a.492.492 0 01-.383.187h-.004m-.488-6.625v-.004.004" fill="#11100d"/><path d="M212.95 135.691v-4.949h3.98l-3.98 4.95" fill="#efac1e"/><path d="M212.95 136.992a.518.518 0 01-.317-.11.531.531 0 01-.168-.26l-.004-.005v-.004-.004l-.004-.004a.485.485 0 01-.012-.105v-.02c0-.105.04-.214.114-.304l.39-.485 3.98-4.949h-3.98a.479.479 0 01-.32-.113l.004.004a.502.502 0 00.703-.074l.656-.817h3.98a.496.496 0 01.5.488v.024c0 .11-.038.219-.105.305l-.89 1.105-3.485 4.324-.656.82a.514.514 0 01-.383.184h-.004m-.484-6.613c0-.004 0-.004-.004-.004.004 0 .004 0 .004.004m-.004-.008v-.004.004m.047-.363v-.004.004m0-.008h0m.004-.004v-.004.004m.004-.004v-.008.008m.004-.008v-.004.004m0-.004c.015-.015.023-.039.039-.054l-.04.054" fill="#11100d"/><path d="M212.95 129.441v-4.945h3.98l-3.98 4.945" fill="#efac1e"/><path d="M212.95 130.742a.495.495 0 01-.317-.11l-.004-.003h-.004a.483.483 0 01-.156-.242l-.004-.004v-.004c0-.004 0-.004-.004-.004v-.004-.004-.004c0-.004-.004-.004-.004-.008a.46.46 0 01-.012-.105v-.016c0-.082.024-.16.063-.226v-.004V130h.004v-.004-.004h.004v-.008h.004v-.004c.011-.015.023-.035.039-.054l.39-.485 3.98-4.945h-3.976c.14 0 .285-.062.383-.187l.656-.813h3.98a.496.496 0 01.5.488v.024c0 .11-.038.215-.105.3l-.89 1.106-3.485 4.328-.656.817a.502.502 0 01-.387.183m-.48-6.594v-.003.003m0-.003v-.004.004m-.004-.008v-.004.004m0-.004l-.012-.043.012.043" fill="#11100d"/><path d="M212.95 123.2v-4.946c.003 0 .003-.004.007-.004h3.973l-3.98 4.95" fill="#efac1e"/><path d="M212.95 124.496a.495.495 0 01-.477-.344l-.004-.004v-.003-.004s0-.004-.004-.004v-.004l-.012-.043a.532.532 0 01-.008-.082v-.02c0-.11.04-.215.114-.304l.39-.485 3.98-4.949h-3.972c.14 0 .281-.066.379-.184l.656-.816h3.98a.496.496 0 01.5.488v.024c0 .11-.038.218-.105.304l-.89 1.106-3.485 4.324-.656.813a.486.486 0 01-.383.187h-.004" fill="#11100d"/><path d="M212.95 116.95v-4.946h3.98l-3.98 4.945" fill="#efac1e"/><path d="M212.95 118.254a.517.517 0 01-.321-.113.52.52 0 01-.184-.38v-.023a.523.523 0 01.114-.304l.39-.485 3.98-4.945h-3.976a.5.5 0 00.383-.184l.656-.82h3.98c.196 0 .372.113.454.285.035.067.047.14.047.207v.024c0 .109-.04.214-.106.304l-.89 1.102-3.485 4.328-.656.816a.499.499 0 01-.379.184c-.004 0-.004.004-.008.004m-.484-6.617v-.004.004m-.004-.012v-.004.004m-.004-.008" fill="#11100d"/><path d="M212.95 110.707v-4.95h3.98l-3.98 4.95" fill="#efac1e"/><path d="M212.95 112.004a.495.495 0 01-.485-.367v-.004c-.004 0-.004 0-.004-.004v-.004-.004l-.004-.004a.45.45 0 01-.012-.101v-.024c0-.105.04-.21.114-.305l.39-.48 3.98-4.95h-3.976a.5.5 0 00.383-.183l.656-.82h3.98a.5.5 0 01.454.289.4.4 0 01.047.203v.02c0 .113-.04.218-.106.308l-.89 1.102-3.485 4.324-.656.82a.5.5 0 01-.383.184h-.004" fill="#11100d"/><path d="M212.95 104.457v-4.945h3.98l-3.98 4.945" fill="#efac1e"/><path d="M212.95 105.758a.495.495 0 01-.321-.113.511.511 0 01-.184-.375v-.024a.523.523 0 01.114-.305l.39-.484 3.98-4.945h1.286l-.738.918-3.485 4.324-.656.82a.5.5 0 01-.383.184h-.004m.004-6.246h3.977-3.977" fill="#11100d"/><path d="M221.402 92.262v-.973l1.196.973h-1.196m3.118 0V88.77l4.312 3.492h-4.312m6.226 0V88.77l4.316 3.492h-4.316m6.23 0V88.77l4.317 3.492h-4.316m6.23 0V88.77l4.316 3.492h-4.316m6.23 0V88.77l4.313 3.492h-4.313m6.231 0V88.77l4.316 3.492h-4.316" fill="#efac1e"/><path d="M260.898 93.266h-5.718c.07 0 .136-.02.203-.047a.51.51 0 00.285-.457v-.5h4.316l-4.316-3.492 5.23 4.234v.262m-5.742 0h-6.207c.067 0 .14-.02.203-.051a.5.5 0 00.286-.453v-.5h4.312l1.102.89c.09.07.195.114.304.114m-6.23 0h-6.211c.074 0 .14-.02.207-.047a.518.518 0 00.285-.457v-.5h4.316l1.102.89c.086.07.195.114.3.114m-6.23 0h-6.207c.075 0 .14-.02.207-.047a.514.514 0 00.282-.457v-.5h4.316l1.102.89c.085.07.19.114.3.114m-6.23 0h-6.203c.066 0 .136-.02.199-.051a.5.5 0 00.285-.453v-.5h4.316l1.102.89c.086.07.195.114.3.114m-6.23 0h-6.207a.504.504 0 00.493-.504v-.5h4.312l1.102.89c.09.07.195.114.3.114m-6.23 0h-2.602v-1.004h1.196l1.101.89c.094.07.196.114.305.114m37.723-.883h-.004.004m-.004-.004h-.004.004m-.008-.004l-.004-.004-6.227-5.043 6.227 5.043.004.004m-7.05-4.656h-4.93l-.485-.39a.503.503 0 00-.313-.106h6.231a.497.497 0 00-.504.496m-6.226 0H243.5l-.48-.39a.511.511 0 00-.313-.106c-.027 0-.055 0-.082.004v.003h-.035s-.004 0-.008.004h-.004l-.004.004h-.012l-.003.004a.5.5 0 00-.352.477h-4.934l-.484-.39a.503.503 0 00-.312-.106h12.46a.473.473 0 00-.386.183.482.482 0 00-.113.313m-12.461 0h-4.93l-.484-.39a.52.52 0 00-.313-.106h6.227a.484.484 0 00-.387.183.482.482 0 00-.113.313m-6.227 0h-4.938l-.48-.39c-.035-.024-.074-.052-.117-.067l-.024-.012h-.004s0-.004-.003-.004h-.004-.004l-.004-.004h-.004c-.004 0-.008 0-.008-.004h-.004a.544.544 0 00-.136-.015c-.032 0-.063 0-.09.007h-.008-.004-.016c-.004 0-.011.004-.015.004s-.004 0-.004.004h-.004-.004s-.004 0-.004.004h-.004-.004c-.004 0-.004.004-.008.004a.497.497 0 00-.261.207c0 .004 0 .004-.004.008v.004s-.004 0-.004.004a.485.485 0 00-.07.25h-2.114v-.496h8.844a.497.497 0 00-.39.183.495.495 0 00-.106.313" fill="#11100d"/><path d="M223.516 91.715l-2.114-1.711v-2.285h2.114v3.995" fill="#efac1e"/><path d="M224.02 93.266h-.016a.507.507 0 01-.305-.114l-1.101-.89-1.196-.973v-1.285l2.114 1.71v-3.98c.004.141.07.282.187.38h-.004l.82.656v3.992a.507.507 0 01-.492.504h-.007m-.43-5.801v-.004.004m0-.004c.004-.004.004-.004.004-.008 0 .004 0 .004-.004.008m.004-.008a.35.35 0 01.058-.074c-.007.008-.015.02-.023.027-.016.016-.024.031-.035.047m.738-.125a.501.501 0 00-.117-.066c.043.015.082.043.117.066M224.191 87.25h-.004.004m-.011-.004h-.004.004m-.008-.004h-.004.004m-.309 0h0m.008 0c0-.004.004-.004.004-.004s-.004 0-.004.004m.008-.004h0m.004 0c0-.004 0-.004.004-.004-.004 0-.004 0-.004.004m.004-.004c.004 0 .011-.004.015-.004-.004 0-.011.004-.015.004m.015-.004h.012-.012m.016 0h0m.004 0h.008-.008" fill="#11100d"/><path d="M229.75 91.715l-4.938-3.996h4.938v3.996" fill="#efac1e"/><path d="M230.25 93.266h-.016a.496.496 0 01-.3-.114l-1.102-.89-4.312-3.492-.82-.657h.003a.516.516 0 01-.187-.379v-.015c0-.086.023-.172.07-.25 0-.004.004-.004.004-.004v-.004c.004-.004.004-.004.004-.008.011-.016.02-.031.035-.047l.023-.027a.497.497 0 01.203-.133c.004 0 .004-.004.008-.004h.008c0-.004.004-.004.004-.004h.008c0-.004 0-.004.004-.004s.011-.004.015-.004h.028c.027-.007.058-.007.09-.007.046 0 .09.004.136.015h.004c0 .004.004.004.008.004h.004l.004.004h.008c.004 0 .004.004.004.004h.003l.024.012c.039.015.082.039.117.066l.48.39 4.938 3.997v-3.977c.004.14.063.278.184.375l.812.657v3.992a.5.5 0 01-.285.453.457.457 0 01-.2.05h-.011" fill="#11100d"/><path d="M235.977 91.715l-4.93-3.996h4.93v3.996" fill="#efac1e"/><path d="M236.477 93.266h-.012a.487.487 0 01-.3-.114l-1.102-.89-4.317-3.492-.812-.657a.491.491 0 01-.184-.375v-.02c0-.109.031-.218.105-.312a.497.497 0 01.391-.183h.004a.52.52 0 01.313.105l.484.39 4.93 3.997v-3.977c.003.14.07.278.187.375l.813.657v3.992c0 .195-.11.367-.282.457a.534.534 0 01-.207.047h-.011" fill="#11100d"/><path d="M242.207 91.71l-4.934-3.991h4.934v3.992" fill="#efac1e"/><path d="M242.707 93.266h-.012a.479.479 0 01-.3-.114l-1.102-.89-4.316-3.492-.813-.657a.508.508 0 01-.187-.375v-.02c0-.109.035-.218.113-.312a.484.484 0 01.387-.183c.113 0 .222.035.312.105l.484.39 4.934 3.993v-3.977a.497.497 0 00.188.38l.812.656v3.992a.518.518 0 01-.285.457.534.534 0 01-.207.047h-.008m-.144-6.028h.003-.004m.004 0h.008-.008m.008 0l.004-.004-.004.004m.004-.004h0m.004 0c.004-.004.008-.004.008-.004s-.004 0-.008.004m.008-.004h.031-.031m.035 0v-.003.003" fill="#11100d"/><path d="M248.438 91.715l-4.938-3.996h4.938v3.996" fill="#efac1e"/><path d="M248.938 93.266h-.012a.487.487 0 01-.301-.114l-1.102-.89-4.316-3.492-.812-.657a.497.497 0 01-.188-.379v-.015a.5.5 0 01.352-.477l.004-.004h.011l.004-.004h.004c.004-.004.008-.004.008-.004h.035v-.003c.027-.004.055-.004.082-.004.11 0 .223.035.313.105l.48.39 4.938 3.997v-3.977c.003.14.066.278.187.375l.813.657v3.992a.5.5 0 01-.286.453.473.473 0 01-.203.05h-.012" fill="#11100d"/><path d="M254.664 91.71l-4.93-3.991h4.93c0 .008 0 .015.004.02l-.004 3.972" fill="#efac1e"/><path d="M255.168 93.266h-.012a.498.498 0 01-.304-.114l-1.102-.89-4.313-3.492-.812-.657a.495.495 0 01-.188-.375v-.02c0-.109.036-.218.114-.312a.473.473 0 01.387-.183c.113 0 .222.035.312.105l.484.39 4.93 3.993.004-3.973c.004.14.07.278.184.375l.816.657v3.992a.51.51 0 01-.285.457.531.531 0 01-.203.047h-.012M260.898 93.004l-5.23-4.234-.816-.657a.518.518 0 01-.184-.375c-.004-.004-.004-.011-.004-.02a.504.504 0 01.5-.495h.004a.53.53 0 01.316.105l6.227 5.043.004.004c.004 0 .004 0 .004.004h.004v.004h.004a.51.51 0 01.171.39v-.011a.501.501 0 00-1 0v.242" fill="#11100d"/><path d="M207.34 92.262h-4.149v-3.485c1.286 1.067 2.817 2.38 4.149 3.485m.73-.696c-1.257-1.043-2.71-2.289-3.984-3.343h3.984v3.343" fill="#efac1e"/><path d="M208.07 93.266h-5.367a.507.507 0 00.488-.504v-.5h4.149c.25.207.496.414.73.605v.399m0-5.043h-3.984c-.379-.32-.742-.618-1.082-.895a.511.511 0 00-.313-.105.486.486 0 00-.39.183.5.5 0 00-.11.313h-4.937l-.48-.39a.511.511 0 00-.313-.106h11.61v1m-11.926-.11c-.016-.015-.036-.031-.051-.05.015.019.035.035.05.05m-.117-.644s.004 0 .004-.004c0 .004-.004.004-.004.004m.004-.004a.44.44 0 01.04-.059c-.016.016-.028.04-.04.059" fill="#11100d"/><path d="M202.191 91.715l-4.937-3.996h4.937v3.996" fill="#efac1e"/><path d="M202.691 93.266a.488.488 0 01-.312-.114l-.25-.199-5.984-4.84c-.016-.015-.036-.031-.051-.05a.508.508 0 01-.067-.594s.004 0 .004-.004c.012-.02.024-.043.04-.059.003-.004.007-.008.007-.011a.522.522 0 01.25-.16h.004a.688.688 0 01.129-.012c.11 0 .223.035.312.105l.48.39 4.938 3.997v-3.977c.008.14.067.278.188.375l.812.664v3.985a.507.507 0 01-.488.504h-.012" fill="#11100d"/><path d="M208.07 92.867c-.234-.191-.48-.398-.73-.605-1.332-1.106-2.863-2.418-4.149-3.485l-.812-.664a.508.508 0 01-.188-.375v-.02a.5.5 0 01.11-.312.486.486 0 01.39-.183c.11 0 .223.035.313.105.34.277.703.574 1.082.895 1.273 1.054 2.726 2.3 3.984 3.343v1.301" fill="#11100d"/><path d="M220.402 98.508H209.07V84.816h11.332v13.692m-1.437-12.38c-.09 0-.18.02-.258.067l-8.45 5.035a.506.506 0 00-.245.434v5.031c0 .137.05.266.144.36a.505.505 0 00.36.144h8.449c.133 0 .258-.05.351-.144a.515.515 0 00.149-.36V86.63a.503.503 0 00-.5-.5" fill="#efac1e"/><path d="M220.898 99.512H208.57a.497.497 0 01-.351-.149.497.497 0 01-.149-.351V84.316c0-.129.055-.261.149-.355a.493.493 0 01.351-.145h12.328c.137 0 .266.051.36.145a.51.51 0 01.144.355v14.696a.499.499 0 01-.504.5m0-.5v-.504.504M209.07 84.816v13.692h11.332V84.816H209.07" fill="#11100d"/><path d="M218.465 96.2h-7.453v-4.25l7.453-4.438v8.687m-.793-5.484a.532.532 0 00-.242.062l-5.582 3.094a.501.501 0 00-.196.68.5.5 0 00.438.261.491.491 0 00.242-.066l5.582-3.09a.501.501 0 00.195-.68.5.5 0 00-.437-.261m0-1.547a.487.487 0 00-.242.062l-5.582 3.094a.5.5 0 00-.196.68.5.5 0 00.68.2l5.582-3.095a.505.505 0 00.195-.683.512.512 0 00-.437-.258" fill="#efac1e"/><path d="M218.965 97.2h-8.45a.505.505 0 01-.359-.145.505.505 0 01-.144-.36v-5.03c0-.177.093-.345.246-.435l8.449-5.035a.498.498 0 01.258-.066.503.503 0 01.5.5v10.066a.515.515 0 01-.149.36.493.493 0 01-.351.144m0-.504V96.2v.496m-.5-9.183l-7.453 4.437v4.25h7.453v-8.687" fill="#11100d"/><path d="M212.09 93.266a.5.5 0 01-.438-.262.5.5 0 01.196-.68l5.582-3.094a.487.487 0 01.242-.062c.176 0 .344.098.437.258a.505.505 0 01-.195.683l-5.582 3.094a.487.487 0 01-.242.063M212.09 94.813a.5.5 0 01-.438-.262.501.501 0 01.196-.68l5.582-3.094a.5.5 0 01.68.2.501.501 0 01-.196.68l-5.582 3.09a.491.491 0 01-.242.066M260.898 106.496V92.762a.501.501 0 011 0v13.73a3.052 3.052 0 00-.5-.047c-.171 0-.34.02-.5.051" fill="#11100d"/><path d="M201.246 119.832h2.887v-2.894h-2.887zm0 0" fill="#efac1e"/><path d="M204.633 120.836h-3.887a.517.517 0 01-.351-.145.515.515 0 01-.149-.359v-3.89c0-.133.055-.262.149-.36a.496.496 0 01.351-.14h3.887a.49.49 0 01.5.5v3.89a.522.522 0 01-.149.36.493.493 0 01-.351.144m0-.504v-.5.5m-3.387-3.39v2.89h2.887v-2.89h-2.887" fill="#11100d"/><path d="M261.398 110.707a1.63 1.63 0 010-3.258 1.629 1.629 0 010 3.258" fill="#efac1e"/><path d="M261.398 111.71a2.618 2.618 0 01-2.023-.956 2.659 2.659 0 01-.48-.883 2.651 2.651 0 01-.122-.793c0-1.281.914-2.351 2.125-2.582.16-.031.329-.05.5-.05.168 0 .336.019.5.046a2.633 2.633 0 011.524 4.262 2.63 2.63 0 01-2.024.957m0-4.262a1.63 1.63 0 000 3.258 1.629 1.629 0 000-3.258M297.215 310.453h-3.871v-.086l2.808-.426v-5.765l.211.512h1.551l-.7 5.765" fill="#11100d"/><path d="M297.156 310.902h-3.812v-.449h3.87l-.058.45" fill="#030303"/><path d="M308.133 310.453h-3.59l-.695-5.765h1.265l.489-1.208v6.504l2.53.383v.086" fill="#11100d"/><path d="M308.133 310.902h-3.535l-.055-.449h3.59v.45" fill="#030303"/><path d="M305.113 304.688h-8.75l-.21-.512-1.65-4.067h12.47l-1.371 3.371-.489 1.207" fill="#11100d"/><path d="M306.754 299.105h-12.027l-1.301-7.62 1.18-.907a.507.507 0 00.093-.707.503.503 0 00-.398-.191h-.012l-.14-4.555.105-.027c.012-.004.02-.004.027-.008l.528-.133c.117.145.234.285.363.422 1.633 1.754 4.148 2.598 7.598 2.598h.02c1.233 0 2.593-.102 4.089-.317a.504.504 0 00.418-.387c.074-.367.344-.812.742-1.312.035-.035.063-.078.094-.113v4.605h-.004a.5.5 0 00-.36.848l.38.398-1.395 7.406" fill="#efac1e"/><path d="M307.168 300.11h-12.863a.505.505 0 01-.493-.415l-1.398-8.168.133.114a.49.49 0 00.332.132c.105 0 .215-.039.305-.105l.242-.184 1.3 7.621h12.028l1.394-7.406.848.887-1.336 7.117a.495.495 0 01-.492.406m-12.887-15.02a.5.5 0 00.34-.378c.063.082.125.168.188.246l-.528.133m-2.418-.418l2.348-.602c.008.02.02.035.027.051a.636.636 0 00-.227.004l-2.148.547" fill="#11100d"/><path d="M309.563 303.535l-.016-2.336.215-.097c.015.02.031.039.054.058l.688.606-.942 1.77" fill="#efac1e"/><path d="M309.07 304.605a.508.508 0 01-.336-.128.489.489 0 01-.164-.368l-.03-3.222a.497.497 0 01.292-.461l.961-.442-.137.704c-.027.148.008.3.106.414l-.215.097.015 2.336.942-1.77.414.368c.09.078.207.125.328.125a.41.41 0 00.094-.012c.012 0 .031-.008.043-.012l-1.07 2.032a.507.507 0 01-.399.265l-.797.074h-.047" fill="#11100d"/><path d="M311.832 294.098l-.047-.047c-.008-.012-.02-.024-.031-.035l-3.262-3.407a.504.504 0 00-.36-.156v-4.605c.087-.11.177-.22.27-.332l1.082.293 3.29 7.527c.003.004.007.008.007.016l.035.086-.984.66" fill="#efac1e"/><path d="M314.75 295.352l-1.05-2.399a.5.5 0 00-.927.383l-3.289-7.527-1.082-.293c.227-.262.47-.543.72-.844l.855.23c.144.04.265.145.324.282l4.449 10.168m-3.879-.813l-1.875-1.953-.848-.887-.378-.398a.5.5 0 01.359-.848h.004c.129 0 .262.055.36.156l3.26 3.407a.533.533 0 00-.245-.13.5.5 0 00-.586.398l-.05.255m.956-.437a.708.708 0 00-.043-.051l.047.047-.004.004" fill="#11100d"/><path d="M311.098 300.953l-.403-.355 1.207-6.118a.521.521 0 00-.074-.378l.004-.004.984-.66 1 2.277-2.718 5.238" fill="#efac1e"/><path d="M311.246 302.258a.504.504 0 01-.328-.125l-.414-.367-.688-.606a.493.493 0 01-.16-.473l.137-.703 1.078-5.445.05-.254a.5.5 0 01.833-.27c.012.012.023.024.031.036a.708.708 0 01.043.05.521.521 0 01.074.38l-1.207 6.117.403.355 2.718-5.238-1-2.277-.035-.086c0-.008-.004-.012-.008-.016a.506.506 0 01.465-.688.5.5 0 01.461.305l1.051 2.399.078.18a.516.516 0 01-.012.429l-3.125 6.027a.499.499 0 01-.308.246c-.012.004-.031.012-.043.012a.41.41 0 01-.094.012" fill="#11100d"/><path d="M292.902 290.621l-5.14-4.605 1.16-1.258.203.066c.012.004.02.008.031.008l2.528.84a.607.607 0 00.277.012l2.187-.559.141 4.555a.495.495 0 00-.289.097l-1.098.844" fill="#efac1e"/><path d="M292.879 291.773a.49.49 0 01-.332-.132l-.133-.114-5.32-4.761a.51.51 0 00.703-.047.507.507 0 00-.035-.703l5.14 4.605 1.098-.844a.495.495 0 01.29-.097h.01c.153 0 .302.066.4.191a.507.507 0 01-.095.707l-1.18.906-.241.184a.523.523 0 01-.305.105m-1.04-6.078a.522.522 0 01-.155-.023l-2.528-.84c.043.016.09.023.137.023a.5.5 0 00.465-.308l.207-.5 1.894.625h.004l2.149-.547a.636.636 0 01.226-.004c.121.203.246.402.383.59a.5.5 0 01-.34.379c-.008.004-.015.004-.027.008l-.106.027-2.187.559a.607.607 0 01-.121.011m-2.715-.87l-.203-.067.035-.035a.531.531 0 00.168.101m-4.578-.57a.52.52 0 01.02-.133l.34-1.2a.511.511 0 01.105-.19l-.106.19-.34 1.2a.52.52 0 00-.02.133" fill="#11100d"/><path d="M287.762 286.016l-.004-.004-2.14-1.918.222-.785 5.105-5.84.489.379-2.602 6.316a.504.504 0 00.125.559l-.035.035-1.16 1.258" fill="#efac1e"/><path d="M287.422 286.883a.52.52 0 01-.328-.117c0-.004-.004-.004-.008-.008l-2.371-2.125a.504.504 0 01-.149-.512l.34-1.2.106-.19h.004l5.468-6.25-.023.035a.527.527 0 00-.066.382.54.54 0 00.226.317l1.215.734a.506.506 0 00.258.074c.05 0 .105-.007.152-.027l.238-.074-2.52 6.125-.206.5a.5.5 0 01-.465.308.402.402 0 01-.137-.023c-.011 0-.02-.004-.031-.008a.531.531 0 01-.168-.102.504.504 0 01-.125-.558l2.602-6.316-.489-.38-5.105 5.84-.223.786 2.14 1.918.005.004c.199.187.215.496.035.703a.51.51 0 01-.375.164" fill="#11100d"/><path d="M302.79 286.977c-3.317-.004-5.509-.801-6.888-2.286-1.382-1.476-2.039-3.753-2.039-6.882v-.063c0-.09 0-.176-.004-.266l2.008-.644a.505.505 0 00.332-.606l-.347-1.367a.505.505 0 00-.438-.375l-.05.5.05-.5-1.867-.187-.2-.23a15.766 15.766 0 01-.206-2.407c.004-1.207.183-2.488.742-3.851 1.574.69 2.863.87 4.125.87h.027c1.184-.003 2.332-.14 3.758-.14h.031c1.89 0 4.297.707 6.172 1.898.95.598 1.758 1.317 2.324 2.102.563.789.883 1.64.883 2.547 0 .746-.21 1.539-.723 2.402a.468.468 0 00-.062.332c.062.41.094.797.094 1.164 0 1.992-.86 3.41-1.832 4.637-.48.613-.989 1.164-1.422 1.71-.348.45-.656.888-.836 1.376-1.332.176-2.543.266-3.633.266" fill="#efac1e"/><path d="M302.77 287.977c-3.45 0-5.965-.844-7.598-2.598a7.394 7.394 0 01-.363-.422c-.063-.078-.125-.164-.188-.246a7.63 7.63 0 01-.383-.59c-.008-.016-.02-.031-.027-.05-.941-1.634-1.348-3.739-1.348-6.262v-.008l.996-.32c.004.09.004.175.004.265v.063c0 3.128.657 5.406 2.04 6.882 1.378 1.485 3.57 2.282 6.886 2.286 1.09 0 2.3-.09 3.633-.266.18-.488.488-.926.836-1.375.433-.547.941-1.098 1.422-1.711.972-1.227 1.832-2.645 1.832-4.637 0-.367-.032-.754-.094-1.164a.468.468 0 01.062-.332c.512-.863.723-1.656.723-2.402 0-.906-.32-1.758-.883-2.547-.566-.785-1.375-1.504-2.324-2.102-1.875-1.191-4.281-1.898-6.172-1.898h-.031c-1.426 0-2.574.137-3.758.14h-.027c-1.262 0-2.551-.18-4.125-.87-.559 1.363-.738 2.644-.742 3.851 0 .84.09 1.645.207 2.406l-.328-.382a.492.492 0 00-.375-.172h-.043a.52.52 0 00-.325.148 16.853 16.853 0 01-.14-2c0-1.453.254-3.05 1.039-4.734a.502.502 0 01.668-.239c1.691.813 2.894.985 4.191.989h.016c1.097 0 2.262-.14 3.758-.14 1.597 0 3.421.429 5.105 1.187 1.68.757 3.223 1.847 4.215 3.226.664.922 1.078 1.988 1.078 3.137 0 .89-.25 1.82-.777 2.754.054.398.082.781.082 1.144.004 1.719-.575 3.098-1.293 4.219-.352.535-.73 1.023-1.098 1.465-.25.3-.492.582-.719.844-.093.113-.183.222-.27.332-.03.035-.058.078-.093.113-.398.5-.668.945-.742 1.312a.504.504 0 01-.418.387 28.872 28.872 0 01-4.09.317h-.02" fill="#11100d"/><path d="M292.16 276.973l-.578-.352 1.117-1.77.219.254c.09.098.203.16.328.172l1.723.176.144.57-2.953.95" fill="#efac1e"/><path d="M292.094 278.023a.506.506 0 01-.258-.074l-1.215-.734a.54.54 0 01-.226-.317.527.527 0 01.066-.382l.023-.036 1.735-2.734c.015-.031.039-.055.058-.082a.52.52 0 01.325-.148h.043c.14 0 .277.058.375.171l.328.383.199.23 1.867.188-.05.5.05-.5c.211.024.387.172.438.375l.347 1.367a.505.505 0 01-.332.606l-2.008.644-.996.32-.379.122-.238.074a.405.405 0 01-.152.027m.605-3.171l-1.117 1.77.578.35 2.953-.949-.144-.57-1.723-.176a.512.512 0 01-.328-.172l-.219-.253" fill="#11100d"/><path d="M134.984 133.61h-13.539v-1.786h13.54c.488 0 .886.403.89.895a.898.898 0 01-.89.89" fill="#efac1e"/><path d="M134.984 134.613h-13.539v-1.004h13.54a.898.898 0 00.89-.89.899.899 0 00-.89-.895h-13.54v-1.004h13.54c1.042 0 1.886.852 1.886 1.899a1.89 1.89 0 01-1.887 1.894" fill="#11100d"/><path d="M134.984 142.223h-13.539v-1.786h13.54a.9.9 0 01.89.891.896.896 0 01-.89.895" fill="#efac1e"/><path d="M134.984 143.227h-13.539v-1.004h13.54a.896.896 0 00.89-.895.9.9 0 00-.89-.89h-13.54v-1h13.54c1.042 0 1.886.847 1.886 1.89a1.893 1.893 0 01-1.887 1.899" fill="#11100d"/><path d="M109.656 146.785l-9.789-4.832v-10.191l9.79-4.52v19.543" fill="#efac1e"/><path d="M110.07 148.082a.407.407 0 01-.132-.043l-10.79-5.324a.505.505 0 01-.28-.45v-10.827c0-.192.116-.372.292-.454l10.79-4.98a.485.485 0 01.206-.047h.012-.012a.497.497 0 00-.351.148.49.49 0 00-.149.352v21.133c0 .133.055.262.149.355a.485.485 0 00.265.137m-.414-20.84l-9.789 4.52v10.191l9.79 4.832v-19.543" fill="#11100d"/><path d="M120.445 147.086h-9.785V126.96h9.785v20.125m-7.652-18.117a.501.501 0 00-.496.504.5.5 0 00.496.5h6.074a.501.501 0 000-1.004h-6.074" fill="#efac1e"/><path d="M120.945 148.09h-10.789c-.027 0-.054 0-.086-.008a.485.485 0 01-.265-.137.506.506 0 01-.149-.355v-21.133a.49.49 0 01.149-.352.497.497 0 01.351-.148h10.79a.49.49 0 01.35.148.49.49 0 01.15.352v21.133a.497.497 0 01-.5.5m0-.5v-.504.504m-10.286-20.63v20.126h9.785V126.96h-9.785" fill="#11100d"/><path d="M118.867 129.973h-6.074a.5.5 0 01-.496-.5c0-.278.223-.504.496-.504h6.074a.502.502 0 010 1.004" fill="#11100d"/><path d="M152.457 147.684V128.14l9.785 4.523v10.188l-9.785 4.832" fill="#efac1e"/><path d="M152.191 148.934a.493.493 0 00.266-.441v-.81l9.785-4.831v-10.188l-9.785-4.523v-.786a.517.517 0 00-.144-.351.518.518 0 00-.313-.145.445.445 0 01.168.043l10.785 4.985a.503.503 0 01.293.453v10.828c0 .191-.11.363-.281.445l-10.774 5.32M152 126.86h-.004.004" fill="#11100d"/><path d="M141.668 147.988V127.86h9.789v20.13h-9.789m1.578-18.122a.501.501 0 000 1.004h6.074a.502.502 0 000-1.004h-6.074" fill="#efac1e"/><path d="M151.957 148.992h-10.789a.504.504 0 01-.5-.5v-21.137a.504.504 0 01.5-.5h10.789c.012 0 .027.004.04.004H152c.117.012.23.063.313.145.09.094.144.223.144.351v21.137a.493.493 0 01-.266.442.474.474 0 01-.234.058m-10.289-21.133v20.13h9.789v-20.13h-9.789" fill="#11100d"/><path d="M149.32 130.871h-6.074a.501.501 0 010-1.004h6.074a.502.502 0 010 1.004" fill="#11100d"/><path d="M177.531 304.629h-2.164v-18.422h2.164v18.422m0-27.055h-2.164v-4.344c.356.055.715.086 1.082.086.367 0 .73-.03 1.082-.082v4.34" fill="#efac1e"/><path d="M178.531 304.629h-1v-18.422h.766c.082 0 .16-.02.234-.059v18.48m-3.164 0h-.996v-18.421h.996v18.422m3.164-26.996a.508.508 0 00-.234-.059h-.766v-4.34c.344-.054.676-.14 1-.238v4.637m-3.164-.059h-.996v-4.578c.32.098.656.18.996.234v4.344" fill="#11100d"/><path d="M139.332 304.629h-2.164v-18.422h2.164v18.422m0-27.055h-2.164v-4.344c.355.055.715.086 1.086.086.367 0 .726-.03 1.078-.086v4.344" fill="#efac1e"/><path d="M140.332 304.629h-1v-18.422h1v18.422m-3.164 0h-.996v-18.48a.547.547 0 00.234.058h.762v18.422m-.996-26.996v-4.637c.32.098.656.184.996.234v4.344h-.762c-.082 0-.16.02-.234.059m4.16-.059h-1v-4.344c.344-.054.68-.136 1-.234v4.578" fill="#11100d"/><path d="M177.797 285.207h-4.438l4.438-5.977v5.977m-9.309 0h-3.144l4.922-6.633h3.14l-4.918 6.633m-8.02 0h-3.14l4.918-6.633h3.145l-4.922 6.633m-8.016 0h-3.14l4.917-6.633h3.145l-4.922 6.633m-8.016 0h-3.14l4.918-6.633h3.14l-4.917 6.633m-7.532-.66v-5.973h4.434l-4.434 5.973" fill="#efac1e"/><path d="M178.297 286.207h-5.934a.5.5 0 00.403-.203l.593-.797h4.438v-5.977l.637-.859a.496.496 0 00.043-.523.492.492 0 00-.446-.274h-3.629a.489.489 0 00-.398.2l-.598.8h-3.14l.152-.203a.502.502 0 00-.406-.797h-3.63a.513.513 0 00-.402.2l-.59.8h-3.144l.152-.203a.496.496 0 00.043-.523.492.492 0 00-.445-.274h-3.629a.494.494 0 00-.398.2l-.594.8h-3.145l.153-.203a.514.514 0 00.047-.523.508.508 0 00-.453-.274h-3.625a.501.501 0 00-.403.2l-.594.8h-3.14l.148-.203a.496.496 0 00.043-.523.492.492 0 00-.445-.274h-3.629a.494.494 0 00-.398.2l-.594.8h-4.434v5.973l-.636.855a.506.506 0 00-.047.528.499.499 0 00.449.277h-.266a.547.547 0 01-.234-.059.534.534 0 01-.117-.086.515.515 0 01-.149-.359v-7.629a.506.506 0 01.266-.441.496.496 0 01.234-.059h41.89a.508.508 0 01.352.145.52.52 0 01.145.355v7.63c0 .132-.05.26-.145.358a.496.496 0 01-.352.145m0-.504v-.496.496m-9.558.504h-4.386a.492.492 0 00.398-.203l.594-.797h3.144l-.152.195a.505.505 0 00-.043.528.489.489 0 00.445.277m-8.015 0h-4.391c.16 0 .309-.074.398-.203l.598-.797h3.14l-.148.195a.506.506 0 00-.047.528.499.499 0 00.45.277m-8.02 0h-4.387a.492.492 0 00.399-.203l.597-.797h3.141l-.148.195a.498.498 0 00-.047.528.493.493 0 00.445.277m-8.012 0h-4.394c.16 0 .308-.074.406-.203l.594-.797h3.14l-.152.195a.514.514 0 00-.047.528c.09.172.262.277.453.277" fill="#11100d"/><path d="M140.05 285.207h-2.382l4.918-6.633h2.383l-4.918 6.633" fill="#efac1e"/><path d="M140.297 286.207h-3.625a.499.499 0 01-.45-.277.506.506 0 01.048-.528l.636-.855 4.434-5.973.594-.8a.494.494 0 01.398-.2h3.629c.191 0 .363.106.445.274a.496.496 0 01-.043.523l-.148.203-4.918 6.633-.594.797a.507.507 0 01-.406.203m0-.504v-.496.496m2.289-7.129l-4.918 6.633h2.383l4.918-6.633h-2.383" fill="#11100d"/><path d="M148.063 285.207h-2.38l4.919-6.633h2.382l-4.922 6.633" fill="#efac1e"/><path d="M148.316 286.207h-3.625a.509.509 0 01-.453-.277.514.514 0 01.047-.528l.153-.195 4.917-6.633.594-.8a.501.501 0 01.403-.2h3.625c.191 0 .367.106.453.274a.514.514 0 01-.047.523l-.153.203-4.917 6.633-.598.797a.492.492 0 01-.399.203m0-.504v-.496.496m2.286-7.129l-4.918 6.633h2.379l4.921-6.633h-2.382" fill="#11100d"/><path d="M156.082 285.207h-2.383l4.918-6.633H161l-4.918 6.633" fill="#efac1e"/><path d="M156.332 286.207h-3.629a.493.493 0 01-.445-.277.498.498 0 01.047-.528l.148-.195 4.922-6.633.594-.8a.494.494 0 01.398-.2h3.63c.19 0 .362.106.444.274a.496.496 0 01-.043.523l-.152.203-4.918 6.633-.598.797a.482.482 0 01-.398.203m0-.504v-.496.496m2.285-7.129l-4.918 6.633h2.383l4.918-6.633h-2.383" fill="#11100d"/><path d="M164.098 285.207h-2.383l4.922-6.633h2.383l-4.922 6.633" fill="#efac1e"/><path d="M164.352 286.207h-3.63a.499.499 0 01-.449-.277.506.506 0 01.047-.528l.149-.195 4.922-6.633.59-.8a.513.513 0 01.402-.2h3.629a.502.502 0 01.406.797l-.152.203-4.922 6.633-.594.797a.492.492 0 01-.398.203m0-.504v-.496.496m2.285-7.129l-4.922 6.633h2.383l4.922-6.633h-2.383" fill="#11100d"/><path d="M172.117 285.207h-2.383l4.918-6.633h2.383l-4.918 6.633" fill="#efac1e"/><path d="M172.363 286.207h-3.625a.489.489 0 01-.445-.277.505.505 0 01.043-.528l.152-.195 4.918-6.633.598-.8c.09-.126.238-.2.398-.2h3.63c.19 0 .363.106.445.274a.496.496 0 01-.043.523l-.637.86-4.438 5.976-.593.797a.5.5 0 01-.403.203m0-.504v-.496.496m2.29-7.129l-4.919 6.633h2.383l4.918-6.633h-2.383" fill="#11100d"/><path d="M133.582 306.793h9.336v-1.16h-9.336zm0 0" fill="#efac1e"/><path d="M133.582 307.555h9.336v-.762h-9.336zm0 0" fill="#101313"/><path d="M143.918 306.793h-1.004v-1.16h-9.332v1.16h-1v-1.664a.504.504 0 01.5-.5h10.332c.137 0 .266.055.36.148a.493.493 0 01.144.352v1.664" fill="#11100d"/><path d="M143.414 308.559h-10.332a.504.504 0 01-.5-.5v-1.266h1v.762h9.332v-.762h1.004v1.266c0 .132-.05.257-.145.351a.515.515 0 01-.359.149m0-.5v-.504.504" fill="#030303"/><path d="M171.785 306.793h9.332v-1.16h-9.332zm0 0" fill="#efac1e"/><path d="M171.785 307.555h9.332v-.762h-9.332zm0 0" fill="#101313"/><path d="M182.117 306.793h-1v-1.16h-9.332v1.16h-1v-1.664c0-.133.05-.258.145-.352a.506.506 0 01.355-.148h10.332c.133 0 .258.055.352.148a.497.497 0 01.148.352v1.664" fill="#11100d"/><path d="M181.617 308.559h-10.332a.506.506 0 01-.355-.149.493.493 0 01-.145-.351v-1.266h1v.762h9.332v-.762h1v1.266a.497.497 0 01-.148.351.497.497 0 01-.352.149m0-.5v-.504.504" fill="#030303"/><path d="M138.254 272.313a5.82 5.82 0 01-4.137-1.715 5.861 5.861 0 01-1.71-4.149 5.845 5.845 0 015.847-5.86c1.613 0 3.07.657 4.133 1.716a5.845 5.845 0 011.71 4.144 5.861 5.861 0 01-1.71 4.149 5.819 5.819 0 01-4.133 1.714m0-10.59a4.721 4.721 0 00-4.719 4.727 4.725 4.725 0 004.719 4.73c2.601 0 4.715-2.116 4.715-4.73a4.72 4.72 0 00-4.715-4.726" fill="#efac1e"/><path d="M138.254 273.316a6.976 6.976 0 01-2.082-.32 6.87 6.87 0 01-4.766-6.547c0-3.789 3.063-6.863 6.848-6.863 3.781 0 6.844 3.074 6.844 6.863a6.876 6.876 0 01-4.766 6.547 7.003 7.003 0 01-2.078.32m0-12.726a5.845 5.845 0 00-5.848 5.86c0 1.62.653 3.081 1.711 4.148a5.82 5.82 0 004.137 1.714c1.613 0 3.07-.652 4.133-1.714a5.861 5.861 0 001.71-4.149 5.845 5.845 0 00-1.71-4.144 5.835 5.835 0 00-4.133-1.715" fill="#11100d"/><path d="M138.254 270.18a3.723 3.723 0 01-3.719-3.73c0-1.032.414-1.962 1.086-2.634a3.7 3.7 0 012.633-1.09c1.023 0 1.953.415 2.629 1.09a3.726 3.726 0 01-2.629 6.363" fill="#efac1e"/><path d="M138.254 271.18a4.725 4.725 0 01-4.719-4.73 4.721 4.721 0 014.719-4.727 4.72 4.72 0 014.715 4.726c0 2.613-2.114 4.73-4.715 4.73m0-8.452a3.7 3.7 0 00-2.633 1.09 3.707 3.707 0 00-1.086 2.632 3.723 3.723 0 003.719 3.73 3.726 3.726 0 002.629-6.363 3.705 3.705 0 00-2.63-1.09" fill="#11100d"/><path d="M176.45 272.313a5.805 5.805 0 01-4.134-1.715 5.865 5.865 0 01-1.714-4.149c0-1.62.656-3.082 1.714-4.144a5.821 5.821 0 014.133-1.715c1.617 0 3.074.656 4.133 1.715a5.832 5.832 0 011.715 4.144 5.848 5.848 0 01-1.715 4.149 5.805 5.805 0 01-4.133 1.714m0-10.59a4.718 4.718 0 00-4.715 4.727c0 2.613 2.11 4.73 4.715 4.73a4.725 4.725 0 004.719-4.73 4.721 4.721 0 00-4.719-4.726" fill="#efac1e"/><path d="M176.45 273.316c-.368 0-.727-.03-1.083-.086a7.547 7.547 0 01-.996-.234 6.874 6.874 0 01-4.77-6.547c0-3.789 3.067-6.863 6.848-6.863 3.781 0 6.848 3.074 6.848 6.863 0 3.067-2 5.66-4.766 6.547a7.612 7.612 0 01-1 .238c-.351.051-.715.082-1.082.082m0-12.726a5.821 5.821 0 00-4.133 1.715 5.849 5.849 0 00-1.714 4.144c0 1.621.656 3.082 1.714 4.149a5.805 5.805 0 004.133 1.714 5.805 5.805 0 004.133-1.714 5.848 5.848 0 001.715-4.149 5.832 5.832 0 00-1.715-4.144 5.821 5.821 0 00-4.133-1.715" fill="#11100d"/><path d="M176.45 270.18a3.726 3.726 0 01-2.629-6.363 3.705 3.705 0 012.628-1.09c1.028 0 1.957.414 2.63 1.09a3.707 3.707 0 011.085 2.632 3.723 3.723 0 01-3.715 3.73" fill="#efac1e"/><path d="M176.45 271.18a4.721 4.721 0 01-4.716-4.73 4.718 4.718 0 014.715-4.727 4.721 4.721 0 014.719 4.726 4.725 4.725 0 01-4.719 4.73m0-8.452a3.705 3.705 0 00-2.629 1.09 3.726 3.726 0 002.629 6.363 3.723 3.723 0 003.715-3.73c0-1.032-.414-1.962-1.086-2.634a3.692 3.692 0 00-2.629-1.09" fill="#11100d"/><path d="M216.05 275.945V256.09h8.497v3.008h-5.512v5.418h4.024v3.007h-4.024v5.414h5.512v3.008h-8.496M233.09 260.887c0-1.153-.57-1.723-1.707-1.723h-1.801v6.348h1.8c.477 0 .88-.168 1.212-.508.332-.336.496-.746.496-1.219zm-1.785-4.782c1.664 0 2.882.457 3.664 1.38.683.8 1.027 1.917 1.027 3.355v2.883c0 1.402-.535 2.59-1.594 3.562l2.207 8.66h-3.226l-1.809-7.472h-1.992v7.472h-2.984v-19.84h4.707M245.66 260.887c0-1.153-.57-1.723-1.703-1.723h-1.8v6.348h1.8a1.62 1.62 0 001.203-.508c.336-.336.5-.746.5-1.219zm-1.785-4.782c1.664 0 2.883.457 3.664 1.38.688.8 1.027 1.917 1.027 3.355v2.883c0 1.402-.53 2.59-1.597 3.562l2.215 8.66h-3.23l-1.813-7.472h-1.985v7.472h-2.984v-19.84h4.703M257.582 260.54c0-.474-.168-.88-.496-1.212a1.645 1.645 0 00-1.211-.496c-.473 0-.879.164-1.215.496a1.646 1.646 0 00-.508 1.211v10.86c0 .476.172.882.508 1.214.336.332.742.496 1.215.496.477 0 .879-.164 1.21-.496.33-.332.497-.738.497-1.215zm-1.629-4.688c1.32 0 2.434.464 3.356 1.394.921.926 1.382 2.047 1.382 3.356v10.828c0 1.324-.464 2.445-1.39 3.37-.922.919-2.04 1.38-3.348 1.38-1.312 0-2.43-.461-3.348-1.39-.914-.93-1.375-2.048-1.375-3.36v-10.828c0-1.32.465-2.438 1.395-3.364.926-.925 2.035-1.386 3.328-1.386M269.816 260.887c0-1.153-.566-1.723-1.699-1.723h-1.8v6.348h1.8a1.62 1.62 0 001.203-.508 1.66 1.66 0 00.496-1.219zm-1.78-4.782c1.663 0 2.882.457 3.663 1.38.688.8 1.028 1.917 1.028 3.355v2.883c0 1.402-.532 2.59-1.598 3.562l2.215 8.66h-3.23l-1.813-7.472h-1.985v7.472h-2.988v-19.84h4.707" fill="#101313"/></svg>